<?xml version="1.0" encoding="UTF-8" standalone="no"?>
<!DOCTYPE svg PUBLIC "-//W3C//DTD SVG 1.1//EN"
 "http://www.w3.org/Graphics/SVG/1.1/DTD/svg11.dtd">
<!-- Generated by graphviz version 2.43.0 (0)
 -->
<!-- Title: Graphical Class Hierarchy Pages: 1 -->
<svg width="301pt" height="1417pt"
 viewBox="0.00 0.00 301.00 1417.00" xmlns="http://www.w3.org/2000/svg" xmlns:xlink="http://www.w3.org/1999/xlink">
<g id="graph0" class="graph" transform="scale(1 1) rotate(0) translate(4 1413)">
<title>Graphical Class Hierarchy</title>
<!-- Node1234 -->
<g id="node1" class="node">
<title>Node1234</title>
<g id="a_node1"><a xlink:title=" ">
<polygon fill="none" stroke="#bfbfbf" points="0,-688.5 0,-707.5 68,-707.5 68,-688.5 0,-688.5"/>
<text text-anchor="middle" x="34" y="-695.5" font-family="Helvetica,sans-Serif" font-size="10.00">shared_ptr</text>
</a>
</g>
</g>
<!-- Node0 -->
<g id="node2" class="node">
<title>Node0</title>
<g id="a_node2"><a xlink:href="class_ogre_1_1_shared_ptr.html" target="_top" xlink:title=" ">
<polygon fill="none" stroke="black" points="104.5,-1389.5 104.5,-1408.5 292.5,-1408.5 292.5,-1389.5 104.5,-1389.5"/>
<text text-anchor="middle" x="198.5" y="-1396.5" font-family="Helvetica,sans-Serif" font-size="10.00">Ogre::SharedPtr&lt; LinearSkinning &gt;</text>
</a>
</g>
</g>
<!-- Node1234&#45;&gt;Node0 -->
<g id="edge1" class="edge">
<title>Node1234&#45;&gt;Node0</title>
<path fill="none" stroke="midnightblue" d="M35.63,-717.94C39.2,-825.08 58.35,-1329.56 104,-1380 107.33,-1383.68 111.17,-1386.77 115.35,-1389.34"/>
<polygon fill="midnightblue" stroke="midnightblue" points="39.13,-717.73 35.3,-707.85 32.13,-717.96 39.13,-717.73"/>
</g>
<!-- Node1236 -->
<g id="node3" class="node">
<title>Node1236</title>
<g id="a_node3"><a xlink:href="class_ogre_1_1_shared_ptr.html" target="_top" xlink:title=" ">
<polygon fill="none" stroke="black" points="129,-1340 129,-1370 268,-1370 268,-1340 129,-1340"/>
<text text-anchor="start" x="137" y="-1358" font-family="Helvetica,sans-Serif" font-size="10.00">Ogre::SharedPtr&lt; Ogre</text>
<text text-anchor="middle" x="198.5" y="-1347" font-family="Helvetica,sans-Serif" font-size="10.00">::D3D11VideoModeList &gt;</text>
</a>
</g>
</g>
<!-- Node1234&#45;&gt;Node1236 -->
<g id="edge2" class="edge">
<title>Node1234&#45;&gt;Node1236</title>
<path fill="none" stroke="midnightblue" d="M35.84,-717.68C40.36,-819.37 63.08,-1282.31 104,-1330 110.57,-1337.65 119.19,-1343.09 128.55,-1346.93"/>
<polygon fill="midnightblue" stroke="midnightblue" points="39.33,-717.42 35.4,-707.58 32.34,-717.72 39.33,-717.42"/>
</g>
<!-- Node1237 -->
<g id="node4" class="node">
<title>Node1237</title>
<g id="a_node4"><a xlink:href="class_ogre_1_1_shared_ptr.html" target="_top" xlink:title=" ">
<polygon fill="none" stroke="black" points="118.5,-1301.5 118.5,-1320.5 278.5,-1320.5 278.5,-1301.5 118.5,-1301.5"/>
<text text-anchor="middle" x="198.5" y="-1308.5" font-family="Helvetica,sans-Serif" font-size="10.00">Ogre::SharedPtr&lt; BspLevel &gt;</text>
</a>
</g>
</g>
<!-- Node1234&#45;&gt;Node1237 -->
<g id="edge3" class="edge">
<title>Node1234&#45;&gt;Node1237</title>
<path fill="none" stroke="midnightblue" d="M35.95,-718.08C40.81,-816.92 64.23,-1248.7 104,-1292 108.15,-1296.51 113.05,-1300.12 118.4,-1302.99"/>
<polygon fill="midnightblue" stroke="midnightblue" points="39.44,-717.77 35.46,-707.95 32.45,-718.11 39.44,-717.77"/>
</g>
<!-- Node1238 -->
<g id="node5" class="node">
<title>Node1238</title>
<g id="a_node5"><a xlink:href="class_ogre_1_1_shared_ptr.html" target="_top" xlink:title=" ">
<polygon fill="none" stroke="black" points="134.5,-1252 134.5,-1282 262.5,-1282 262.5,-1252 134.5,-1252"/>
<text text-anchor="start" x="142.5" y="-1270" font-family="Helvetica,sans-Serif" font-size="10.00">Ogre::SharedPtr&lt; Ogre</text>
<text text-anchor="middle" x="198.5" y="-1259" font-family="Helvetica,sans-Serif" font-size="10.00">::Vector &gt;</text>
</a>
</g>
</g>
<!-- Node1234&#45;&gt;Node1238 -->
<g id="edge4" class="edge">
<title>Node1234&#45;&gt;Node1238</title>
<path fill="none" stroke="midnightblue" d="M34.68,-717.67C33.64,-805.6 33.88,-1161.71 104,-1242 111.96,-1251.11 122.84,-1257.08 134.36,-1260.94"/>
<polygon fill="midnightblue" stroke="midnightblue" points="38.18,-717.55 34.82,-707.5 31.18,-717.45 38.18,-717.55"/>
</g>
<!-- Node1239 -->
<g id="node6" class="node">
<title>Node1239</title>
<g id="a_node6"><a xlink:href="class_ogre_1_1_shared_ptr.html" target="_top" xlink:title=" ">
<polygon fill="none" stroke="black" points="134.5,-1191.5 134.5,-1232.5 262.5,-1232.5 262.5,-1191.5 134.5,-1191.5"/>
<text text-anchor="start" x="142.5" y="-1220.5" font-family="Helvetica,sans-Serif" font-size="10.00">Ogre::SharedPtr&lt; Ogre</text>
<text text-anchor="start" x="142.5" y="-1209.5" font-family="Helvetica,sans-Serif" font-size="10.00">::ControllerFunction</text>
<text text-anchor="middle" x="198.5" y="-1198.5" font-family="Helvetica,sans-Serif" font-size="10.00">&lt; T &gt; &gt;</text>
</a>
</g>
</g>
<!-- Node1234&#45;&gt;Node1239 -->
<g id="edge5" class="edge">
<title>Node1234&#45;&gt;Node1239</title>
<path fill="none" stroke="midnightblue" d="M35.12,-717.97C36,-800.02 43.35,-1110.13 104,-1182 111.92,-1191.38 122.78,-1197.86 134.3,-1202.32"/>
<polygon fill="midnightblue" stroke="midnightblue" points="38.61,-717.55 35.03,-707.58 31.61,-717.61 38.61,-717.55"/>
</g>
<!-- Node1240 -->
<g id="node7" class="node">
<title>Node1240</title>
<g id="a_node7"><a xlink:href="class_ogre_1_1_shared_ptr.html" target="_top" xlink:title=" ">
<polygon fill="none" stroke="black" points="126,-1142 126,-1172 271,-1172 271,-1142 126,-1142"/>
<text text-anchor="start" x="134" y="-1160" font-family="Helvetica,sans-Serif" font-size="10.00">Ogre::SharedPtr&lt; Abstract</text>
<text text-anchor="middle" x="198.5" y="-1149" font-family="Helvetica,sans-Serif" font-size="10.00">NodeList &gt;</text>
</a>
</g>
</g>
<!-- Node1234&#45;&gt;Node1240 -->
<g id="edge6" class="edge">
<title>Node1234&#45;&gt;Node1240</title>
<path fill="none" stroke="midnightblue" d="M35.36,-717.99C37.14,-794.95 47.45,-1070.88 104,-1133 109.98,-1139.57 117.49,-1144.45 125.64,-1148.05"/>
<polygon fill="midnightblue" stroke="midnightblue" points="38.85,-717.69 35.14,-707.77 31.85,-717.84 38.85,-717.69"/>
</g>
<!-- Node1241 -->
<g id="node8" class="node">
<title>Node1241</title>
<g id="a_node8"><a xlink:href="class_ogre_1_1_shared_ptr.html" target="_top" xlink:title=" ">
<polygon fill="none" stroke="black" points="114.5,-1093 114.5,-1123 282.5,-1123 282.5,-1093 114.5,-1093"/>
<text text-anchor="start" x="122.5" y="-1111" font-family="Helvetica,sans-Serif" font-size="10.00">Ogre::SharedPtr&lt; MemoryData</text>
<text text-anchor="middle" x="198.5" y="-1100" font-family="Helvetica,sans-Serif" font-size="10.00">Stream &gt;</text>
</a>
</g>
</g>
<!-- Node1234&#45;&gt;Node1241 -->
<g id="edge7" class="edge">
<title>Node1234&#45;&gt;Node1241</title>
<path fill="none" stroke="midnightblue" d="M35.83,-717.92C39.17,-788.97 54.04,-1028.66 104,-1083 107.53,-1086.83 111.57,-1090.11 115.95,-1092.9"/>
<polygon fill="midnightblue" stroke="midnightblue" points="39.31,-717.51 35.37,-707.68 32.32,-717.82 39.31,-717.51"/>
</g>
<!-- Node1242 -->
<g id="node9" class="node">
<title>Node1242</title>
<g id="a_node9"><a xlink:href="class_ogre_1_1_shared_ptr.html" target="_top" xlink:title=" ">
<polygon fill="none" stroke="black" points="111.5,-1054.5 111.5,-1073.5 285.5,-1073.5 285.5,-1054.5 111.5,-1054.5"/>
<text text-anchor="middle" x="198.5" y="-1061.5" font-family="Helvetica,sans-Serif" font-size="10.00">Ogre::SharedPtr&lt; DataStream &gt;</text>
</a>
</g>
</g>
<!-- Node1234&#45;&gt;Node1242 -->
<g id="edge8" class="edge">
<title>Node1234&#45;&gt;Node1242</title>
<path fill="none" stroke="midnightblue" d="M36.13,-717.76C40.32,-784.21 57.29,-998.1 104,-1045 107.74,-1048.76 112.01,-1051.87 116.61,-1054.44"/>
<polygon fill="midnightblue" stroke="midnightblue" points="39.62,-717.54 35.52,-707.76 32.63,-717.96 39.62,-717.54"/>
</g>
<!-- Node1243 -->
<g id="node10" class="node">
<title>Node1243</title>
<g id="a_node10"><a xlink:href="class_ogre_1_1_shared_ptr.html" target="_top" xlink:title=" ">
<polygon fill="none" stroke="black" points="122.5,-1005 122.5,-1035 274.5,-1035 274.5,-1005 122.5,-1005"/>
<text text-anchor="start" x="130.5" y="-1023" font-family="Helvetica,sans-Serif" font-size="10.00">Ogre::SharedPtr&lt; Controller</text>
<text text-anchor="middle" x="198.5" y="-1012" font-family="Helvetica,sans-Serif" font-size="10.00">Value&lt; Real &gt; &gt;</text>
</a>
</g>
</g>
<!-- Node1234&#45;&gt;Node1243 -->
<g id="edge9" class="edge">
<title>Node1234&#45;&gt;Node1243</title>
<path fill="none" stroke="midnightblue" d="M36.9,-717.55C43.1,-777.26 64.61,-955.67 104,-996 109.27,-1001.4 115.57,-1005.64 122.39,-1008.96"/>
<polygon fill="midnightblue" stroke="midnightblue" points="40.38,-717.15 35.89,-707.55 33.41,-717.85 40.38,-717.15"/>
</g>
<!-- Node1244 -->
<g id="node11" class="node">
<title>Node1244</title>
<g id="a_node11"><a xlink:href="class_ogre_1_1_shared_ptr.html" target="_top" xlink:title=" ">
<polygon fill="none" stroke="black" points="104,-956 104,-986 293,-986 293,-956 104,-956"/>
<text text-anchor="start" x="112" y="-974" font-family="Helvetica,sans-Serif" font-size="10.00">Ogre::SharedPtr&lt; Ogre</text>
<text text-anchor="middle" x="198.5" y="-963" font-family="Helvetica,sans-Serif" font-size="10.00">::GLStateCacheManagerCommon &gt;</text>
</a>
</g>
</g>
<!-- Node1234&#45;&gt;Node1244 -->
<g id="edge10" class="edge">
<title>Node1234&#45;&gt;Node1244</title>
<path fill="none" stroke="midnightblue" d="M34.29,-717.55C33.71,-764.28 39.07,-883.3 104,-947 107.47,-950.4 111.35,-953.34 115.51,-955.88"/>
<polygon fill="midnightblue" stroke="midnightblue" points="37.79,-717.62 34.52,-707.54 30.79,-717.45 37.79,-717.62"/>
</g>
<!-- Node1245 -->
<g id="node12" class="node">
<title>Node1245</title>
<g id="a_node12"><a xlink:href="class_ogre_1_1_shared_ptr.html" target="_top" xlink:title=" ">
<polygon fill="none" stroke="black" points="122.5,-907 122.5,-937 274.5,-937 274.5,-907 122.5,-907"/>
<text text-anchor="start" x="130.5" y="-925" font-family="Helvetica,sans-Serif" font-size="10.00">Ogre::SharedPtr&lt; Controller</text>
<text text-anchor="middle" x="198.5" y="-914" font-family="Helvetica,sans-Serif" font-size="10.00">Function&lt; Real &gt; &gt;</text>
</a>
</g>
</g>
<!-- Node1234&#45;&gt;Node1245 -->
<g id="edge11" class="edge">
<title>Node1234&#45;&gt;Node1245</title>
<path fill="none" stroke="midnightblue" d="M35.87,-717.7C38.73,-757.79 51.05,-849.17 104,-898 109.42,-903 115.74,-906.99 122.49,-910.17"/>
<polygon fill="midnightblue" stroke="midnightblue" points="39.36,-717.4 35.28,-707.63 32.37,-717.82 39.36,-717.4"/>
</g>
<!-- Node1246 -->
<g id="node13" class="node">
<title>Node1246</title>
<g id="a_node13"><a xlink:href="class_ogre_1_1_shared_ptr.html" target="_top" xlink:title=" ">
<polygon fill="none" stroke="black" points="123,-858 123,-888 274,-888 274,-858 123,-858"/>
<text text-anchor="start" x="131" y="-876" font-family="Helvetica,sans-Serif" font-size="10.00">Ogre::SharedPtr&lt; Animable</text>
<text text-anchor="middle" x="198.5" y="-865" font-family="Helvetica,sans-Serif" font-size="10.00">Value &gt;</text>
</a>
</g>
</g>
<!-- Node1234&#45;&gt;Node1246 -->
<g id="edge12" class="edge">
<title>Node1234&#45;&gt;Node1246</title>
<path fill="none" stroke="midnightblue" d="M38.51,-717.77C45.27,-749.98 63.22,-813.62 104,-848 109.65,-852.77 116.12,-856.63 122.97,-859.77"/>
<polygon fill="midnightblue" stroke="midnightblue" points="41.91,-716.94 36.56,-707.79 35.04,-718.27 41.91,-716.94"/>
</g>
<!-- Node1247 -->
<g id="node14" class="node">
<title>Node1247</title>
<g id="a_node14"><a xlink:href="class_ogre_1_1_shared_ptr.html" target="_top" xlink:title=" ">
<polygon fill="none" stroke="black" points="110.5,-819.5 110.5,-838.5 286.5,-838.5 286.5,-819.5 110.5,-819.5"/>
<text text-anchor="middle" x="198.5" y="-826.5" font-family="Helvetica,sans-Serif" font-size="10.00">Ogre::SharedPtr&lt; GpuProgram &gt;</text>
</a>
</g>
</g>
<!-- Node1234&#45;&gt;Node1247 -->
<g id="edge13" class="edge">
<title>Node1234&#45;&gt;Node1247</title>
<path fill="none" stroke="midnightblue" d="M41.37,-717.29C50.82,-742.74 71.07,-787 104,-810 109.43,-813.79 115.45,-816.87 121.74,-819.35"/>
<polygon fill="midnightblue" stroke="midnightblue" points="44.6,-715.92 37.97,-707.65 37.99,-718.24 44.6,-715.92"/>
</g>
<!-- Node1248 -->
<g id="node15" class="node">
<title>Node1248</title>
<g id="a_node15"><a xlink:href="class_ogre_1_1_shared_ptr.html" target="_top" xlink:title=" ">
<polygon fill="none" stroke="black" points="122.5,-781.5 122.5,-800.5 274.5,-800.5 274.5,-781.5 122.5,-781.5"/>
<text text-anchor="middle" x="198.5" y="-788.5" font-family="Helvetica,sans-Serif" font-size="10.00">Ogre::SharedPtr&lt; Texture &gt;</text>
</a>
</g>
</g>
<!-- Node1234&#45;&gt;Node1248 -->
<g id="edge14" class="edge">
<title>Node1234&#45;&gt;Node1248</title>
<path fill="none" stroke="midnightblue" d="M47,-716.34C59.23,-733.5 79.82,-758.46 104,-772 110.94,-775.88 118.56,-778.98 126.37,-781.45"/>
<polygon fill="midnightblue" stroke="midnightblue" points="49.63,-714 41.09,-707.73 43.86,-717.96 49.63,-714"/>
</g>
<!-- Node1249 -->
<g id="node16" class="node">
<title>Node1249</title>
<g id="a_node16"><a xlink:href="class_ogre_1_1_shared_ptr.html" target="_top" xlink:title=" ">
<polygon fill="none" stroke="black" points="124,-732 124,-762 273,-762 273,-732 124,-732"/>
<text text-anchor="start" x="132" y="-750" font-family="Helvetica,sans-Serif" font-size="10.00">Ogre::SharedPtr&lt; unsigned</text>
<text text-anchor="middle" x="198.5" y="-739" font-family="Helvetica,sans-Serif" font-size="10.00"> char &gt;</text>
</a>
</g>
</g>
<!-- Node1234&#45;&gt;Node1249 -->
<g id="edge15" class="edge">
<title>Node1234&#45;&gt;Node1249</title>
<path fill="none" stroke="midnightblue" d="M69.38,-711.2C80.37,-715.21 92.63,-719.49 104,-723 114.09,-726.11 124.87,-729.15 135.4,-731.96"/>
<polygon fill="midnightblue" stroke="midnightblue" points="70.31,-707.81 59.72,-707.61 67.87,-714.37 70.31,-707.81"/>
</g>
<!-- Node1250 -->
<g id="node17" class="node">
<title>Node1250</title>
<g id="a_node17"><a xlink:href="class_ogre_1_1_shared_ptr.html" target="_top" xlink:title=" ">
<polygon fill="none" stroke="black" points="119.5,-683 119.5,-713 277.5,-713 277.5,-683 119.5,-683"/>
<text text-anchor="start" x="127.5" y="-701" font-family="Helvetica,sans-Serif" font-size="10.00">Ogre::SharedPtr&lt; GpuShared</text>
<text text-anchor="middle" x="198.5" y="-690" font-family="Helvetica,sans-Serif" font-size="10.00">Parameters &gt;</text>
</a>
</g>
</g>
<!-- Node1234&#45;&gt;Node1250 -->
<g id="edge16" class="edge">
<title>Node1234&#45;&gt;Node1250</title>
<path fill="none" stroke="midnightblue" d="M78.47,-698C91.08,-698 105.26,-698 119.31,-698"/>
<polygon fill="midnightblue" stroke="midnightblue" points="78.28,-694.5 68.28,-698 78.28,-701.5 78.28,-694.5"/>
</g>
<!-- Node1251 -->
<g id="node18" class="node">
<title>Node1251</title>
<g id="a_node18"><a xlink:href="class_ogre_1_1_shared_ptr.html" target="_top" xlink:title=" ">
<polygon fill="none" stroke="black" points="119,-634 119,-664 278,-664 278,-634 119,-634"/>
<text text-anchor="start" x="127" y="-652" font-family="Helvetica,sans-Serif" font-size="10.00">Ogre::SharedPtr&lt; GpuNamed</text>
<text text-anchor="middle" x="198.5" y="-641" font-family="Helvetica,sans-Serif" font-size="10.00">Constants &gt;</text>
</a>
</g>
</g>
<!-- Node1234&#45;&gt;Node1251 -->
<g id="edge17" class="edge">
<title>Node1234&#45;&gt;Node1251</title>
<path fill="none" stroke="midnightblue" d="M70.53,-685.08C81.23,-681.34 93.05,-677.36 104,-674 115.08,-670.6 126.98,-667.21 138.46,-664.08"/>
<polygon fill="midnightblue" stroke="midnightblue" points="69.33,-681.8 61.06,-688.43 71.66,-688.4 69.33,-681.8"/>
</g>
<!-- Node1252 -->
<g id="node19" class="node">
<title>Node1252</title>
<g id="a_node19"><a xlink:href="class_ogre_1_1_shared_ptr.html" target="_top" xlink:title=" ">
<polygon fill="none" stroke="black" points="120.5,-595.5 120.5,-614.5 276.5,-614.5 276.5,-595.5 120.5,-595.5"/>
<text text-anchor="middle" x="198.5" y="-602.5" font-family="Helvetica,sans-Serif" font-size="10.00">Ogre::SharedPtr&lt; Material &gt;</text>
</a>
</g>
</g>
<!-- Node1234&#45;&gt;Node1252 -->
<g id="edge18" class="edge">
<title>Node1234&#45;&gt;Node1252</title>
<path fill="none" stroke="midnightblue" d="M47.08,-679.96C59.38,-663.08 80.01,-638.48 104,-625 111.81,-620.61 120.49,-617.18 129.32,-614.5"/>
<polygon fill="midnightblue" stroke="midnightblue" points="44.02,-678.24 41.14,-688.43 49.75,-682.26 44.02,-678.24"/>
</g>
<!-- Node1253 -->
<g id="node20" class="node">
<title>Node1253</title>
<g id="a_node20"><a xlink:href="class_ogre_1_1_shared_ptr.html" target="_top" xlink:title=" ">
<polygon fill="none" stroke="black" points="129.5,-546 129.5,-576 267.5,-576 267.5,-546 129.5,-546"/>
<text text-anchor="start" x="137.5" y="-564" font-family="Helvetica,sans-Serif" font-size="10.00">Ogre::SharedPtr&lt; Ogre</text>
<text text-anchor="middle" x="198.5" y="-553" font-family="Helvetica,sans-Serif" font-size="10.00">::ControllerValue&lt; T &gt; &gt;</text>
</a>
</g>
</g>
<!-- Node1234&#45;&gt;Node1253 -->
<g id="edge19" class="edge">
<title>Node1234&#45;&gt;Node1253</title>
<path fill="none" stroke="midnightblue" d="M41.72,-678.63C51.47,-653.44 71.94,-609.87 104,-586 111.55,-580.38 120.27,-576.02 129.29,-572.65"/>
<polygon fill="midnightblue" stroke="midnightblue" points="38.38,-677.59 38.2,-688.18 44.94,-680.01 38.38,-677.59"/>
</g>
<!-- Node1254 -->
<g id="node21" class="node">
<title>Node1254</title>
<g id="a_node21"><a xlink:href="class_ogre_1_1_shared_ptr.html" target="_top" xlink:title=" ">
<polygon fill="none" stroke="black" points="122.5,-497 122.5,-527 274.5,-527 274.5,-497 122.5,-497"/>
<text text-anchor="start" x="130.5" y="-515" font-family="Helvetica,sans-Serif" font-size="10.00">Ogre::SharedPtr&lt; Hardware</text>
<text text-anchor="middle" x="198.5" y="-504" font-family="Helvetica,sans-Serif" font-size="10.00">SkinningTechnique &gt;</text>
</a>
</g>
</g>
<!-- Node1234&#45;&gt;Node1254 -->
<g id="edge20" class="edge">
<title>Node1234&#45;&gt;Node1254</title>
<path fill="none" stroke="midnightblue" d="M37.81,-678.24C43.71,-644.2 60.62,-574.56 104,-537 109.46,-532.27 115.73,-528.42 122.37,-525.3"/>
<polygon fill="midnightblue" stroke="midnightblue" points="34.32,-677.9 36.21,-688.32 41.23,-678.99 34.32,-677.9"/>
</g>
<!-- Node1255 -->
<g id="node22" class="node">
<title>Node1255</title>
<g id="a_node22"><a xlink:href="class_ogre_1_1_shared_ptr.html" target="_top" xlink:title=" ">
<polygon fill="none" stroke="black" points="108,-448 108,-478 289,-478 289,-448 108,-448"/>
<text text-anchor="start" x="116" y="-466" font-family="Helvetica,sans-Serif" font-size="10.00">Ogre::SharedPtr&lt; DualQuaternion</text>
<text text-anchor="middle" x="198.5" y="-455" font-family="Helvetica,sans-Serif" font-size="10.00">Skinning &gt;</text>
</a>
</g>
</g>
<!-- Node1234&#45;&gt;Node1255 -->
<g id="edge21" class="edge">
<title>Node1234&#45;&gt;Node1255</title>
<path fill="none" stroke="midnightblue" d="M35.54,-678.23C37.77,-636.72 48.94,-540.05 104,-488 108.03,-484.19 112.57,-480.95 117.43,-478.19"/>
<polygon fill="midnightblue" stroke="midnightblue" points="32.03,-678.26 35.12,-688.39 39.03,-678.55 32.03,-678.26"/>
</g>
<!-- Node1256 -->
<g id="node23" class="node">
<title>Node1256</title>
<g id="a_node23"><a xlink:href="class_ogre_1_1_shared_ptr.html" target="_top" xlink:title=" ">
<polygon fill="none" stroke="black" points="119.5,-399 119.5,-429 277.5,-429 277.5,-399 119.5,-399"/>
<text text-anchor="start" x="127.5" y="-417" font-family="Helvetica,sans-Serif" font-size="10.00">Ogre::SharedPtr&lt; GpuLogical</text>
<text text-anchor="middle" x="198.5" y="-406" font-family="Helvetica,sans-Serif" font-size="10.00">BufferStruct &gt;</text>
</a>
</g>
</g>
<!-- Node1234&#45;&gt;Node1256 -->
<g id="edge22" class="edge">
<title>Node1234&#45;&gt;Node1256</title>
<path fill="none" stroke="midnightblue" d="M37.69,-678.23C45.47,-623.77 69.69,-473.34 104,-439 108.51,-434.48 113.75,-430.76 119.39,-427.68"/>
<polygon fill="midnightblue" stroke="midnightblue" points="34.19,-677.93 36.28,-688.32 41.13,-678.9 34.19,-677.93"/>
</g>
<!-- Node1257 -->
<g id="node24" class="node">
<title>Node1257</title>
<g id="a_node24"><a xlink:href="class_ogre_1_1_shared_ptr.html" target="_top" xlink:title=" ">
<polygon fill="none" stroke="black" points="122.5,-350 122.5,-380 274.5,-380 274.5,-350 122.5,-350"/>
<text text-anchor="start" x="130.5" y="-368" font-family="Helvetica,sans-Serif" font-size="10.00">Ogre::SharedPtr&lt; Hardware</text>
<text text-anchor="middle" x="198.5" y="-357" font-family="Helvetica,sans-Serif" font-size="10.00">Buffer &gt;</text>
</a>
</g>
</g>
<!-- Node1234&#45;&gt;Node1257 -->
<g id="edge23" class="edge">
<title>Node1234&#45;&gt;Node1257</title>
<path fill="none" stroke="midnightblue" d="M36.78,-678.23C42.7,-616.99 63.63,-432.06 104,-390 109.24,-384.55 115.52,-380.24 122.32,-376.84"/>
<polygon fill="midnightblue" stroke="midnightblue" points="33.27,-678.17 35.83,-688.46 40.24,-678.83 33.27,-678.17"/>
</g>
<!-- Node1258 -->
<g id="node25" class="node">
<title>Node1258</title>
<g id="a_node25"><a xlink:href="class_ogre_1_1_shared_ptr.html" target="_top" xlink:title=" ">
<polygon fill="none" stroke="black" points="108,-301 108,-331 289,-331 289,-301 108,-301"/>
<text text-anchor="start" x="116" y="-319" font-family="Helvetica,sans-Serif" font-size="10.00">Ogre::SharedPtr&lt; ShadowCamera</text>
<text text-anchor="middle" x="198.5" y="-308" font-family="Helvetica,sans-Serif" font-size="10.00">Setup &gt;</text>
</a>
</g>
</g>
<!-- Node1234&#45;&gt;Node1258 -->
<g id="edge24" class="edge">
<title>Node1234&#45;&gt;Node1258</title>
<path fill="none" stroke="midnightblue" d="M36.12,-678.23C40.35,-610.75 57.52,-390.87 104,-341 107.55,-337.19 111.61,-333.94 116.01,-331.16"/>
<polygon fill="midnightblue" stroke="midnightblue" points="32.62,-678.16 35.52,-688.35 39.61,-678.58 32.62,-678.16"/>
</g>
<!-- Node1259 -->
<g id="node26" class="node">
<title>Node1259</title>
<g id="a_node26"><a xlink:href="class_ogre_1_1_shared_ptr.html" target="_top" xlink:title=" ">
<polygon fill="none" stroke="black" points="130,-262.5 130,-281.5 267,-281.5 267,-262.5 130,-262.5"/>
<text text-anchor="middle" x="198.5" y="-269.5" font-family="Helvetica,sans-Serif" font-size="10.00">Ogre::SharedPtr&lt; Font &gt;</text>
</a>
</g>
</g>
<!-- Node1234&#45;&gt;Node1259 -->
<g id="edge25" class="edge">
<title>Node1234&#45;&gt;Node1259</title>
<path fill="none" stroke="midnightblue" d="M35.52,-678.34C37.87,-604.98 49.88,-348.47 104,-292 111.01,-284.69 119.98,-279.73 129.59,-276.41"/>
<polygon fill="midnightblue" stroke="midnightblue" points="32.02,-678.39 35.22,-688.49 39.01,-678.6 32.02,-678.39"/>
</g>
<!-- Node1260 -->
<g id="node27" class="node">
<title>Node1260</title>
<g id="a_node27"><a xlink:href="class_ogre_1_1_shared_ptr.html" target="_top" xlink:title=" ">
<polygon fill="none" stroke="black" points="130,-213 130,-243 267,-243 267,-213 130,-213"/>
<text text-anchor="start" x="138" y="-231" font-family="Helvetica,sans-Serif" font-size="10.00">Ogre::SharedPtr&lt; Terrain</text>
<text text-anchor="middle" x="198.5" y="-220" font-family="Helvetica,sans-Serif" font-size="10.00">MaterialGenerator &gt;</text>
</a>
</g>
</g>
<!-- Node1234&#45;&gt;Node1260 -->
<g id="edge26" class="edge">
<title>Node1234&#45;&gt;Node1260</title>
<path fill="none" stroke="midnightblue" d="M35.3,-678.08C36.86,-600.14 46.49,-317.04 104,-253 110.96,-245.25 120.03,-239.79 129.79,-235.96"/>
<polygon fill="midnightblue" stroke="midnightblue" points="31.79,-678.34 35.11,-688.4 38.79,-678.47 31.79,-678.34"/>
</g>
<!-- Node1261 -->
<g id="node28" class="node">
<title>Node1261</title>
<g id="a_node28"><a xlink:href="class_ogre_1_1_shared_ptr.html" target="_top" xlink:title=" ">
<polygon fill="none" stroke="black" points="116,-164 116,-194 281,-194 281,-164 116,-164"/>
<text text-anchor="start" x="124" y="-182" font-family="Helvetica,sans-Serif" font-size="10.00">Ogre::SharedPtr&lt; GpuProgram</text>
<text text-anchor="middle" x="198.5" y="-171" font-family="Helvetica,sans-Serif" font-size="10.00">Parameters &gt;</text>
</a>
</g>
</g>
<!-- Node1234&#45;&gt;Node1261 -->
<g id="edge27" class="edge">
<title>Node1234&#45;&gt;Node1261</title>
<path fill="none" stroke="midnightblue" d="M34.96,-678.05C35.19,-594.78 40.3,-276.02 104,-204 107.45,-200.1 111.44,-196.77 115.78,-193.95"/>
<polygon fill="midnightblue" stroke="midnightblue" points="31.46,-678.18 34.95,-688.18 38.46,-678.18 31.46,-678.18"/>
</g>
<!-- Node1262 -->
<g id="node29" class="node">
<title>Node1262</title>
<g id="a_node29"><a xlink:href="class_ogre_1_1_shared_ptr.html" target="_top" xlink:title=" ">
<polygon fill="none" stroke="black" points="120,-115 120,-145 277,-145 277,-115 120,-115"/>
<text text-anchor="start" x="128" y="-133" font-family="Helvetica,sans-Serif" font-size="10.00">Ogre::SharedPtr&lt; SubRender</text>
<text text-anchor="middle" x="198.5" y="-122" font-family="Helvetica,sans-Serif" font-size="10.00">StateAccessor &gt;</text>
</a>
</g>
</g>
<!-- Node1234&#45;&gt;Node1262 -->
<g id="edge28" class="edge">
<title>Node1234&#45;&gt;Node1262</title>
<path fill="none" stroke="midnightblue" d="M34.68,-678.07C33.67,-589.81 34.08,-235.05 104,-155 108.42,-149.94 113.74,-145.85 119.58,-142.55"/>
<polygon fill="midnightblue" stroke="midnightblue" points="31.18,-678.14 34.81,-688.09 38.18,-678.04 31.18,-678.14"/>
</g>
<!-- Node1263 -->
<g id="node30" class="node">
<title>Node1263</title>
<g id="a_node30"><a xlink:href="class_ogre_1_1_shared_ptr.html" target="_top" xlink:title=" ">
<polygon fill="none" stroke="black" points="127.5,-76.5 127.5,-95.5 269.5,-95.5 269.5,-76.5 127.5,-76.5"/>
<text text-anchor="middle" x="198.5" y="-83.5" font-family="Helvetica,sans-Serif" font-size="10.00">Ogre::SharedPtr&lt; Mesh &gt;</text>
</a>
</g>
</g>
<!-- Node1234&#45;&gt;Node1263 -->
<g id="edge29" class="edge">
<title>Node1234&#45;&gt;Node1263</title>
<path fill="none" stroke="midnightblue" d="M35.97,-678C40.89,-579.53 64.57,-149.35 104,-106 110.37,-99 118.53,-94.13 127.38,-90.78"/>
<polygon fill="midnightblue" stroke="midnightblue" points="32.46,-677.93 35.47,-688.09 39.46,-678.27 32.46,-677.93"/>
</g>
<!-- Node1264 -->
<g id="node31" class="node">
<title>Node1264</title>
<g id="a_node31"><a xlink:href="class_ogre_1_1_shared_ptr.html" target="_top" xlink:title=" ">
<polygon fill="none" stroke="black" points="119.5,-38.5 119.5,-57.5 277.5,-57.5 277.5,-38.5 119.5,-38.5"/>
<text text-anchor="middle" x="198.5" y="-45.5" font-family="Helvetica,sans-Serif" font-size="10.00">Ogre::SharedPtr&lt; Skeleton &gt;</text>
</a>
</g>
</g>
<!-- Node1234&#45;&gt;Node1264 -->
<g id="edge30" class="edge">
<title>Node1234&#45;&gt;Node1264</title>
<path fill="none" stroke="midnightblue" d="M35.79,-678.3C40.06,-576.54 61.71,-113.35 104,-67 108.35,-62.23 113.55,-58.47 119.23,-55.52"/>
<polygon fill="midnightblue" stroke="midnightblue" points="32.29,-678.28 35.38,-688.41 39.28,-678.56 32.29,-678.28"/>
</g>
<!-- Node1265 -->
<g id="node32" class="node">
<title>Node1265</title>
<g id="a_node32"><a xlink:href="class_ogre_1_1_shared_ptr.html" target="_top" xlink:title=" ">
<polygon fill="none" stroke="black" points="137.5,-0.5 137.5,-19.5 259.5,-19.5 259.5,-0.5 137.5,-0.5"/>
<text text-anchor="middle" x="198.5" y="-7.5" font-family="Helvetica,sans-Serif" font-size="10.00">Ogre::SharedPtr&lt; T &gt;</text>
</a>
</g>
</g>
<!-- Node1234&#45;&gt;Node1265 -->
<g id="edge31" class="edge">
<title>Node1234&#45;&gt;Node1265</title>
<path fill="none" stroke="midnightblue" d="M35.67,-678.12C39.41,-572.33 59.21,-78.4 104,-29 112.68,-19.43 124.75,-13.93 137.34,-10.9"/>
<polygon fill="midnightblue" stroke="midnightblue" points="32.16,-678.22 35.32,-688.34 39.16,-678.47 32.16,-678.22"/>
</g>
</g>
</svg>
